<?xml version="1.0" encoding="utf-8"?>
<!-- Generator: Adobe Illustrator 25.0.0, SVG Export Plug-In . SVG Version: 6.00 Build 0)  -->
<svg version="1.1" id="Layer_1" xmlns="http://www.w3.org/2000/svg" xmlns:xlink="http://www.w3.org/1999/xlink" x="0px" y="0px"
	 viewBox="0 0 566.9 135" style="enable-background:new 0 0 566.9 135;" xml:space="preserve">
<style type="text/css">
	.st0{fill:#00A417;}
	.st1{fill:#FFDF00;}
	.st2{fill-rule:evenodd;clip-rule:evenodd;fill:#00A417;}
</style>
<g>
	<path class="st0" d="M155.8,103.3h-6.4l-2.9-1.8l0.3-3h2.7l-0.3,2.4h7.3l0.7-6.2h-5.5l0.2-2.4h5.5l0.6-5.6h-7.3l-0.2,2.4h-2.7
		l0.3-3l3.3-1.8h6.4l2.9,1.8l-0.6,6.1l-2.5,1.3l0,0.1l2.2,1.3l-0.7,6.7L155.8,103.3z"/>
	<path class="st0" d="M177.8,101.3l-3.3,1.8h-11l2-18.8h11l2.9,1.8L177.8,101.3z M167.9,86.7l-1.5,14h8.7l1.5-14H167.9z"/>
	<path class="st0" d="M180.5,103.7l8.5-19.9h2.4l-8.5,19.9H180.5z"/>
	<path class="st0" d="M201.8,103.3h-6.4l-2.9-1.8l0.3-3h2.7l-0.3,2.4h7.3l0.7-6.2h-5.5l0.2-2.4h5.5l0.6-5.6h-7.3l-0.2,2.4h-2.7
		l0.3-3l3.3-1.8h6.4l2.9,1.8l-0.6,6.1l-2.5,1.3l0,0.1l2.2,1.3l-0.7,6.7L201.8,103.3z"/>
	<path class="st0" d="M214,86.6l-0.7,6.6l2-1.1h4.5l2.9,1.8l-0.8,7.6l-3.3,1.8h-6l-2.9-1.8l1.6-15.5l3.3-1.8h6l2.9,1.8l-0.3,3h-2.7
		l0.2-2.4H214z M213.2,94.5l-0.7,6.3h6.9l0.7-6.3H213.2z"/>
	<path class="st0" d="M239.6,101.5l-3.3,1.8h-6.8l-2.9-1.8l1.6-15.5l3.3-1.8h6.8l2.9,1.8L239.6,101.5z M230.8,86.6l-1.5,14.3h7.7
		l1.5-14.3H230.8z"/>
	<path class="st0" d="M252.8,89.7l2.8,11h0.1l5.1-11h2.6l-6.4,13.5h-3.1l-3.6-13.5H252.8z"/>
	<path class="st0" d="M268.4,89.7l-1.4,13.5h-2.6l1.4-13.5H268.4z M266,86.4l0.3-2.9h2.9l-0.3,2.9H266z"/>
	<path class="st0" d="M279.7,92h-4.9l-1.2,11.1h-2.6l1.4-13.5h2l0.5,1.1l2-1.1h3L279.7,92z"/>
	<path class="st0" d="M281.3,92l0.2-2.3h2.5l0.2-2.3l2.8-1.5l-0.4,3.8h3.2l-0.2,2.3h-3.2l-0.9,8.8h3.2l-0.2,2.3h-2.7l-2.9-1.8l1-9.3
		H281.3z"/>
	<path class="st0" d="M292.2,101.5l1.2-11.8h2.6l-1.2,11.3h6.2l1.2-11.3h2.6l-1.4,13.6h-2l-0.5-1.1l-2,1.1h-3.8L292.2,101.5z"/>
	<path class="st0" d="M320.1,89.5l-1.5,13.7h-0.7l-1.8-1.1l-2,1.1h-3.5l-2.9-1.8l1.1-10.1l3.3-1.8h3.5l1.8,1.1l2-1.1H320.1z
		 M311.3,91.9l-0.9,9h5.9l0.9-9H311.3z"/>
	<path class="st0" d="M325.8,103.1l-2.9-1.8l1.9-17.8h2.6l-1.8,17.3h3.2l-0.2,2.3H325.8z"/>
	<path class="st0" d="M348.7,103.1l-1.8-10.3h-0.1l-4,10.3h-3.1l-2-13.5h2.4l1.5,10.5h0.1l4.1-10.5h2.8l1.9,10.5h0.1l3.7-10.5h2.4
		l-4.8,13.5H348.7z"/>
	<path class="st0" d="M368.7,100.8l-0.2,2.3h-7.5l-2.9-1.8l1.1-10l3.3-1.8h4.4l2.9,1.8l-0.6,6h-8l-0.3,3.5H368.7z M361.6,91.9
		l-0.3,3.1h5.4l0.3-3.1H361.6z"/>
	<path class="st0" d="M378.4,89.5h4.1l2.9,1.8l-1.1,10.1l-3.3,1.8H377l-1.8-1.1l-2,1.1h-0.7l2.1-19.8h2.6l-0.8,7.2L378.4,89.5z
		 M376.2,91.9l-0.9,9h6.5l0.9-9H376.2z"/>
	<path class="st0" d="M388.6,97.3l0.3-2.3h8l-0.3,2.3H388.6z"/>
	<path class="st0" d="M412.4,89.5l-1.5,13.7h-0.7l-1.8-1.1l-2,1.1h-3.5l-2.9-1.8l1.1-10.1l3.3-1.8h3.5l1.8,1.1l2-1.1H412.4z
		 M403.5,91.9l-0.9,9h5.9l0.9-9H403.5z"/>
	<path class="st0" d="M423.5,103.3h-4.1l-1.8-1.1l-0.7,6.4h-2.6l2-19h2l0.5,1.1l2-1.1h4.1l2.9,1.8l-1.1,10.1L423.5,103.3z
		 M418.7,91.9l-0.9,9h6.5l0.9-9H418.7z"/>
	<path class="st0" d="M439.3,103.3h-4.1l-1.8-1.1l-0.7,6.4h-2.6l2-19h2l0.5,1.1l2-1.1h4.1l2.9,1.8l-1.1,10.1L439.3,103.3z
		 M434.5,91.9l-0.9,9h6.5l0.9-9H434.5z"/>
	<path class="st0" d="M464,96.9l-0.5,4.4l-3.3,1.8h-7l0.2-2.3h7.5l0.3-3.3h-4.4l-2.9-1.8l0.4-4.2l3.3-1.8h6.7l-0.2,2.3H457l-0.3,3.1
		h4.4L464,96.9z"/>
	<path class="st0" d="M479,101.5l-3.3,1.8h-5.2l-2.9-1.8l1.1-10.1l3.3-1.8h5.2l2.9,1.8L479,101.5z M471.1,91.9l-0.9,9h6.2l0.9-9
		H471.1z"/>
	<path class="st0" d="M486,103.1l-2.9-1.8l1.9-17.8h2.6l-1.8,17.3h3.2l-0.2,2.3H486z"/>
	<path class="st0" d="M491.3,101.5l1.2-11.8h2.6l-1.2,11.3h6.2l1.2-11.3h2.6l-1.4,13.6h-2l-0.5-1.1l-2,1.1h-3.8L491.3,101.5z"/>
	<path class="st0" d="M506.7,92l0.2-2.3h2.5l0.2-2.3l2.8-1.5l-0.4,3.8h3.2L515,92h-3.2l-0.9,8.8h3.2l-0.2,2.3h-2.7l-2.9-1.8l1-9.3
		H506.7z"/>
	<path class="st0" d="M521.3,89.7l-1.4,13.5h-2.6l1.4-13.5H521.3z M518.9,86.4l0.3-2.9h2.9l-0.3,2.9H518.9z"/>
	<path class="st0" d="M535.6,101.5l-3.3,1.8h-5.2l-2.9-1.8l1.1-10.1l3.3-1.8h5.2l2.9,1.8L535.6,101.5z M527.7,91.9l-0.9,9h6.2l0.9-9
		H527.7z"/>
	<path class="st0" d="M552.1,91.3l-1.2,11.8h-2.6l1.2-11.3h-6.2l-1.2,11.3h-2.6l1.4-13.6h2l0.5,1.1l2-1.1h3.8L552.1,91.3z"/>
	<path class="st0" d="M565.7,96.9l-0.5,4.4l-3.3,1.8h-7l0.2-2.3h7.5l0.3-3.3h-4.4l-2.9-1.8l0.4-4.2l3.3-1.8h6.7l-0.2,2.3h-7.2
		l-0.3,3.1h4.4L565.7,96.9z"/>
	<g>
		<polygon class="st0" points="146.6,34.1 154.1,29.8 170.3,29.8 177.7,34.1 177.7,42.6 168.7,42.6 168.7,37.5 155.6,37.5 
			155.6,48.2 170.3,48.2 177.7,52.5 177.7,71 170.3,75.3 153.4,75.3 146,71 146,62.5 155,62.5 155,67.6 168.7,67.6 168.7,56.5 
			154.1,56.5 146.6,52.2 		"/>
		<polygon class="st0" points="207.1,75 198.2,75 198.2,37.8 186,37.8 186,30.1 219.2,30.1 219.2,37.8 207.1,37.8 		"/>
		<path class="st0" d="M261.1,75h-8.8l-3.4-9.7h-16.8l-3.4,9.7h-8.8l16-44.9h9.2L261.1,75z M234.8,57.6h11.3l-5.6-16.2h-0.1
			L234.8,57.6z"/>
		<path class="st0" d="M293,75L283.4,58h-5.6V75h-9V30.1h24.3l7.4,4.3v19.4l-7.4,4.3l9.7,16.9H293z M277.8,50.4h13.8V37.8h-13.8
			V50.4z"/>
		<polygon class="st0" points="346.7,51.6 363,51.6 363,71 355.6,75.3 337.5,75.3 330,71 330,34.1 337.5,29.8 355.6,29.8 363,34.1 
			363,43.2 354.1,43.2 354.1,37.5 339,37.5 339,67.6 354.1,67.6 354.1,59.3 346.7,59.3 		"/>
		<polygon class="st0" points="374.6,30.1 383.5,30.1 383.5,67.3 398.9,67.3 398.9,75 374.6,75 		"/>
		<path class="st0" d="M434.7,75.3h-20.1l-7.4-4.3V34.1l7.4-4.3h20.1l7.4,4.3V71L434.7,75.3z M416.2,67.6h17V37.5h-17V67.6z"/>
		<path class="st0" d="M480.4,51.7v0.1L486,55v15.6l-7.4,4.3h-24.3V30.1h24.3l7.4,4.3v14.1L480.4,51.7z M463.3,47.9H477V37.8h-13.8
			V47.9z M463.3,67.3H477V55.6h-13.8V67.3z"/>
		<path class="st0" d="M535,75h-8.8l-3.4-9.7h-16.8l-3.4,9.7h-8.8l16-44.9h9.2L535,75z M508.6,57.6H520l-5.6-16.2h-0.1L508.6,57.6z"
			/>
		<polygon class="st0" points="542.7,30.1 551.6,30.1 551.6,67.3 566.9,67.3 566.9,75 542.7,75 		"/>
	</g>
</g>
<g>
	<path class="st1" d="M77.7,88.4l-7.8-4.5c-2.2-1.3-4.9-1.3-7.1,0l-7.8,4.5v-9.1c0-2.5-1.4-4.9-3.5-6.1l-7.8-4.5l7.8-4.5
		c2.2-1.3,3.5-3.6,3.5-6.1V49l7.8,4.5c2.2,1.3,4.9,1.3,7.1,0l7.8-4.5V58c0,2.5,1.4,4.9,3.5,6.1l7.8,4.5l-7.8,4.5
		c-2.2,1.3-3.5,3.6-3.5,6.1V88.4z M52.9,68.7l0.8,0.5c3.6,2.1,5.9,6,5.9,10.2v1l0.8-0.5c3.6-2.1,8.1-2.1,11.7,0l0.8,0.5v-1
		c0-4.2,2.2-8.1,5.9-10.2l0.8-0.5l-0.8-0.5c-3.6-2.1-5.9-6-5.9-10.2v-1l-0.8,0.5c-3.6,2.1-8.1,2.1-11.7,0l-0.8-0.5v1
		c0,4.2-2.2,8.1-5.9,10.2L52.9,68.7z"/>
	<path class="st2" d="M66.3,132.6c17,0,33.3-6.8,45.2-18.8c12-12,18.7-28.2,18.7-45.2c0-17-6.8-33.3-18.8-45.2
		c-12-12-28.2-18.7-45.2-18.7c-17,0-33.3,6.8-45.2,18.8c-12,12-18.7,28.2-18.7,45.2s6.8,33.3,18.8,45.2S49.3,132.6,66.3,132.6"/>
	<path class="st1" d="M66.3,135c-17.7,0-34.3-6.9-46.8-19.4c-6.2-6.2-11-13.4-14.4-21.5C1.7,86,0,77.4,0,68.7
		C0,51,6.9,34.4,19.4,21.8c6.2-6.2,13.4-11,21.5-14.4C49,4.1,57.6,2.4,66.3,2.4h0c17.7,0,34.3,6.9,46.8,19.4
		c6.2,6.2,11,13.4,14.4,21.5c3.4,8.1,5.1,16.6,5.1,25.4c0,17.7-6.9,34.3-19.4,46.8c-6.2,6.2-13.4,11-21.5,14.4
		C83.6,133.3,75.1,135,66.3,135L66.3,135z M66.3,7L66.3,7c-16.5,0-32,6.4-43.6,18.1c-11.6,11.7-18,27.1-18,43.5
		c0,16.5,6.4,32,18.1,43.6c11.6,11.6,27.1,18,43.5,18h0c16.5,0,32-6.4,43.6-18.1c11.6-11.7,18-27.1,18-43.5c0-16.5-6.4-32-18.1-43.6
		C98.2,13.4,82.8,7,66.3,7"/>
	<g>
		<path class="st1" d="M30.2,80c-2,0-4.1-0.5-5.9-1.6L7.4,68.7l16.9-9.7c3.6-2.1,8.1-2.1,11.7,0h0l16.9,9.7L36,78.4
			C34.2,79.5,32.2,80,30.2,80 M16.7,68.7l9.9,5.7c2.2,1.3,4.9,1.3,7.1,0l9.9-5.7L33.7,63h0c-2.2-1.3-4.9-1.3-7.1,0L16.7,68.7z"/>
		<path class="st1" d="M36.9,119.7v-19.5c0-4.2,2.2-8.1,5.9-10.2l0,0l16.9-9.7v19.5c0,4.2-2.2,8.1-5.9,10.2L36.9,119.7z M45.1,94.1
			c-2.2,1.3-3.5,3.6-3.5,6.1v11.4l9.9-5.7c2.2-1.3,3.5-3.6,3.5-6.1V88.4L45.1,94.1z"/>
		<path class="st1" d="M95.8,119.7l-16.9-9.7c-3.6-2.1-5.9-6-5.9-10.2V80.3L89.9,90c3.6,2.1,5.9,6,5.9,10.2V119.7z M77.7,99.8
			c0,2.5,1.4,4.9,3.5,6.1l9.9,5.7v-11.4c0-2.5-1.4-4.9-3.5-6.1l-9.9-5.7V99.8L77.7,99.8z"/>
		<path class="st1" d="M102.5,80c-2,0-4.1-0.5-5.9-1.6l0,0l-16.9-9.7l16.9-9.7c3.6-2.1,8.1-2.1,11.7,0l16.9,9.7l-16.9,9.7
			C106.5,79.5,104.5,80,102.5,80 M98.9,74.4c2.2,1.3,4.9,1.3,7.1,0l9.9-5.7L106,63c-2.2-1.3-4.9-1.3-7.1,0l-9.9,5.7L98.9,74.4z"/>
		<path class="st1" d="M73,57.1V37.6c0-4.2,2.2-8.1,5.9-10.2l16.9-9.7v19.5c0,4.2-2.2,8.1-5.9,10.2l0,0L73,57.1z M91.1,25.8
			l-9.9,5.7c-2.2,1.3-3.5,3.6-3.5,6.1V49l9.9-5.7c2.2-1.3,3.5-3.6,3.5-6.1V25.8z"/>
		<path class="st1" d="M59.6,57.1l-16.9-9.7c-3.6-2.1-5.9-6-5.9-10.2V17.7l16.9,9.7c3.6,2.1,5.9,6,5.9,10.2V57.1z M41.5,25.8v11.4
			c0,2.5,1.4,4.9,3.5,6.1l9.9,5.7V37.6c0-2.5-1.4-4.9-3.5-6.1L41.5,25.8z"/>
		<path class="st1" d="M77.7,88.4l-7.8-4.5c-2.2-1.3-4.9-1.3-7.1,0l-7.8,4.5v-9.1c0-2.5-1.4-4.9-3.5-6.1l-7.8-4.5l7.8-4.5
			c2.2-1.3,3.5-3.6,3.5-6.1V49l7.8,4.5c2.2,1.3,4.9,1.3,7.1,0l7.8-4.5V58c0,2.5,1.4,4.9,3.5,6.1l7.8,4.5l-7.8,4.5
			c-2.2,1.3-3.5,3.6-3.5,6.1V88.4z M52.9,68.7l0.8,0.5c3.6,2.1,5.9,6,5.9,10.2v1l0.8-0.5c3.6-2.1,8.1-2.1,11.7,0l0.8,0.5v-1
			c0-4.2,2.2-8.1,5.9-10.2l0.8-0.5l-0.8-0.5c-3.6-2.1-5.9-6-5.9-10.2v-1l-0.8,0.5c-3.6,2.1-8.1,2.1-11.7,0l-0.8-0.5v1
			c0,4.2-2.2,8.1-5.9,10.2L52.9,68.7z"/>
	</g>
	<g>
		<path class="st0" d="M123.7,0.2c-3.4,0-6.1,2.7-6.1,6.1c0,3.4,2.7,6.1,6.1,6.1c3.4,0,6.1-2.7,6.1-6.1C129.8,3,127.1,0.2,123.7,0.2
			z M123.7,11.6c-2.9,0-5.2-2.3-5.2-5.2c0-2.9,2.3-5.2,5.2-5.2c2.9,0,5.2,2.3,5.2,5.2C128.9,9.2,126.6,11.6,123.7,11.6z"/>
		<path class="st0" d="M121.2,9.7V3.1h2.9c0.6,0,1,0.1,1.3,0.2s0.5,0.3,0.7,0.6c0.2,0.3,0.3,0.6,0.3,1c0,0.5-0.2,0.9-0.5,1.2
			c-0.3,0.3-0.8,0.5-1.4,0.6c0.2,0.1,0.4,0.2,0.5,0.3c0.3,0.2,0.5,0.5,0.7,0.9l1.1,1.8h-1.1L125,8.3c-0.3-0.4-0.5-0.7-0.6-0.9
			c-0.2-0.2-0.3-0.4-0.4-0.4c-0.1-0.1-0.3-0.1-0.4-0.2c-0.1,0-0.3,0-0.5,0h-1v2.9H121.2z M122,6h1.9c0.4,0,0.7,0,0.9-0.1
			c0.2-0.1,0.4-0.2,0.5-0.4c0.1-0.2,0.2-0.4,0.2-0.6c0-0.3-0.1-0.6-0.3-0.8c-0.2-0.2-0.6-0.3-1.1-0.3H122V6z"/>
	</g>
</g>
</svg>
